<?xml version="1.0" standalone="no"?>
<!DOCTYPE svg PUBLIC "-//W3C//DTD SVG 20010904//EN"
 "http://www.w3.org/TR/2001/REC-SVG-20010904/DTD/svg10.dtd">
<svg version="1.0" xmlns="http://www.w3.org/2000/svg"
 width="700.000000pt" height="700.000000pt" viewBox="0 0 700.000000 700.000000"
 preserveAspectRatio="xMidYMid meet">
<metadata>
Created by potrace 1.11, written by Peter Selinger 2001-2013
</metadata>
<g transform="translate(0.000000,700.000000) scale(0.100000,-0.100000)"
fill="#000000" stroke="none">
<path d="M69 6985 c-14 -8 -34 -26 -44 -41 -16 -25 -17 -74 -17 -694 0 -735
-2 -712 62 -745 37 -19 64 -19 105 1 65 31 64 9 63 740 0 733 2 713 -65 740
-41 17 -71 17 -104 -1z"/>
<path d="M2788 5536 c-16 -7 -83 -63 -149 -126 -67 -63 -130 -122 -139 -130
-9 -8 -73 -67 -140 -130 -68 -63 -138 -128 -156 -145 -17 -16 -85 -79 -149
-140 -65 -60 -127 -118 -138 -127 -11 -10 -71 -66 -134 -125 -63 -60 -132
-123 -152 -142 -20 -18 -92 -86 -161 -150 -69 -65 -147 -137 -174 -162 -27
-24 -63 -57 -80 -74 -32 -31 -277 -259 -380 -355 -33 -30 -72 -66 -86 -80
-188 -178 -196 -189 -184 -244 14 -64 54 -96 119 -96 34 0 63 19 131 85 26 25
104 98 303 283 20 19 61 57 91 85 31 29 114 106 184 172 71 66 145 135 165
154 133 124 257 239 275 254 11 10 52 48 91 85 122 115 315 295 490 457 40 37
256 239 344 322 37 34 71 58 77 55 13 -8 397 -375 427 -409 20 -22 75 -40 107
-35 61 10 104 77 89 140 -6 28 -36 63 -141 164 -254 246 -420 403 -434 411
-24 14 -68 15 -96 3z"/>
<path d="M70 5242 c-67 -33 -62 178 -62 -2617 0 -2417 0 -2543 17 -2569 40
-60 -238 -56 3475 -56 3020 0 3404 2 3430 15 76 39 80 151 8 195 -33 20 -52
20 -3365 20 l-3333 0 0 63 c-1 34 -1 1145 -1 2468 -1 2656 4 2451 -64 2483
-42 20 -62 20 -105 -2z"/>
<path d="M3574 4751 c-35 -21 -57 -65 -50 -101 2 -14 5 -30 5 -37 1 -14 34
-47 311 -313 117 -113 272 -262 344 -331 72 -70 158 -153 191 -184 33 -32 112
-107 176 -169 212 -204 553 -533 661 -638 l108 -103 -106 -125 c-58 -69 -118
-139 -132 -155 -15 -17 -49 -57 -77 -90 -73 -87 -82 -97 -105 -125 -12 -14
-41 -47 -64 -74 -22 -27 -97 -115 -166 -195 -69 -81 -165 -195 -215 -254 -49
-59 -92 -107 -95 -107 -3 0 -48 42 -101 93 -81 78 -303 290 -488 467 -26 25
-142 136 -257 246 -115 111 -225 217 -245 235 -20 19 -111 106 -203 194 -91
87 -172 162 -178 166 -29 16 -78 16 -107 1 -17 -10 -141 -125 -277 -257 -136
-132 -273 -265 -304 -295 -87 -85 -101 -128 -62 -192 23 -38 61 -54 112 -49
37 4 52 16 196 157 72 71 188 184 258 252 l127 123 67 -65 c37 -35 90 -86 118
-113 29 -26 143 -136 255 -244 112 -108 222 -213 244 -234 45 -41 357 -340
534 -511 230 -222 255 -244 288 -255 19 -6 46 -8 60 -4 23 5 79 57 123 111 13
17 457 541 575 679 48 56 201 236 314 369 40 48 77 86 81 84 4 -2 85 -77 179
-168 95 -91 184 -170 198 -176 35 -15 80 -7 113 18 14 11 95 86 180 167 85 82
167 159 181 172 183 168 280 266 289 293 32 97 -68 184 -157 137 -17 -9 -71
-54 -120 -101 -109 -104 -350 -332 -406 -383 l-41 -37 -91 89 c-49 48 -110
107 -134 130 -38 36 -42 43 -30 59 21 27 114 137 221 262 126 147 684 806 721
851 21 27 40 61 42 80 11 88 -79 154 -160 117 -22 -10 -116 -115 -295 -328
-25 -30 -88 -104 -140 -165 -52 -61 -113 -133 -135 -159 -44 -53 -65 -78 -98
-116 -49 -55 -293 -344 -310 -366 -10 -13 -23 -24 -27 -24 -5 0 -36 26 -68 58
-33 31 -151 145 -263 252 -111 107 -226 218 -254 245 -28 28 -138 133 -244
235 -106 102 -230 221 -276 265 -45 44 -171 166 -280 270 -109 105 -234 225
-279 269 -45 43 -94 87 -111 97 -38 24 -82 24 -121 0z"/>
<path d="M1900 2298 c-18 -11 -45 -32 -60 -46 -40 -39 -561 -546 -639 -621
-49 -47 -474 -459 -597 -579 -78 -75 -34 -202 69 -202 51 0 62 7 155 97 43 43
146 143 228 222 206 200 655 635 846 821 146 142 160 159 165 196 13 96 -86
162 -167 112z"/>
</g>
</svg>
